<mxfile host="app.diagrams.net" agent="Mozilla/5.0 (Windows NT 10.0; Win64; x64) AppleWebKit/537.36 (KHTML, like Gecko) Chrome/131.0.0.0 Safari/537.36 Edg/131.0.0.0" version="25.0.1">
  <diagram name="Página-1" id="3Bydx89r-6OEqzIW4eKO">
    <mxGraphModel dx="872" dy="469" grid="1" gridSize="10" guides="1" tooltips="1" connect="1" arrows="1" fold="1" page="1" pageScale="1" pageWidth="827" pageHeight="1169" math="0" shadow="0">
      <root>
        <mxCell id="0" />
        <mxCell id="1" parent="0" />
        <mxCell id="sleSHWVy6FLh6MpH3Owg-17" value="" style="edgeStyle=orthogonalEdgeStyle;rounded=0;orthogonalLoop=1;jettySize=auto;html=1;" edge="1" parent="1" source="sleSHWVy6FLh6MpH3Owg-9" target="sleSHWVy6FLh6MpH3Owg-10">
          <mxGeometry relative="1" as="geometry" />
        </mxCell>
        <mxCell id="sleSHWVy6FLh6MpH3Owg-9" value="inicio" style="strokeWidth=2;html=1;shape=mxgraph.flowchart.start_2;whiteSpace=wrap;" vertex="1" parent="1">
          <mxGeometry x="50" y="155" width="100" height="100" as="geometry" />
        </mxCell>
        <mxCell id="sleSHWVy6FLh6MpH3Owg-12" value="" style="edgeStyle=orthogonalEdgeStyle;rounded=0;orthogonalLoop=1;jettySize=auto;html=1;" edge="1" parent="1" source="sleSHWVy6FLh6MpH3Owg-10" target="sleSHWVy6FLh6MpH3Owg-11">
          <mxGeometry relative="1" as="geometry" />
        </mxCell>
        <mxCell id="sleSHWVy6FLh6MpH3Owg-27" value="SE" style="edgeLabel;html=1;align=center;verticalAlign=middle;resizable=0;points=[];" vertex="1" connectable="0" parent="sleSHWVy6FLh6MpH3Owg-12">
          <mxGeometry x="-0.0443" y="-5" relative="1" as="geometry">
            <mxPoint as="offset" />
          </mxGeometry>
        </mxCell>
        <mxCell id="sleSHWVy6FLh6MpH3Owg-10" value="Ler saque" style="shape=parallelogram;html=1;strokeWidth=2;perimeter=parallelogramPerimeter;whiteSpace=wrap;rounded=1;arcSize=12;size=0.23;" vertex="1" parent="1">
          <mxGeometry x="210" y="175" width="100" height="60" as="geometry" />
        </mxCell>
        <mxCell id="sleSHWVy6FLh6MpH3Owg-14" value="" style="edgeStyle=orthogonalEdgeStyle;rounded=0;orthogonalLoop=1;jettySize=auto;html=1;" edge="1" parent="1" source="sleSHWVy6FLh6MpH3Owg-11" target="sleSHWVy6FLh6MpH3Owg-13">
          <mxGeometry relative="1" as="geometry" />
        </mxCell>
        <mxCell id="sleSHWVy6FLh6MpH3Owg-25" value="SIM" style="edgeLabel;html=1;align=center;verticalAlign=middle;resizable=0;points=[];" vertex="1" connectable="0" parent="sleSHWVy6FLh6MpH3Owg-14">
          <mxGeometry x="0.05" y="2" relative="1" as="geometry">
            <mxPoint as="offset" />
          </mxGeometry>
        </mxCell>
        <mxCell id="sleSHWVy6FLh6MpH3Owg-19" value="" style="edgeStyle=orthogonalEdgeStyle;rounded=0;orthogonalLoop=1;jettySize=auto;html=1;" edge="1" parent="1" source="sleSHWVy6FLh6MpH3Owg-11" target="sleSHWVy6FLh6MpH3Owg-18">
          <mxGeometry relative="1" as="geometry" />
        </mxCell>
        <mxCell id="sleSHWVy6FLh6MpH3Owg-26" value="NÃO" style="edgeLabel;html=1;align=center;verticalAlign=middle;resizable=0;points=[];" vertex="1" connectable="0" parent="sleSHWVy6FLh6MpH3Owg-19">
          <mxGeometry x="-0.125" y="-1" relative="1" as="geometry">
            <mxPoint as="offset" />
          </mxGeometry>
        </mxCell>
        <mxCell id="sleSHWVy6FLh6MpH3Owg-11" value="saque&lt;div&gt;&amp;gt;= saldo&lt;/div&gt;" style="rhombus;whiteSpace=wrap;html=1;strokeWidth=2;rounded=1;arcSize=12;" vertex="1" parent="1">
          <mxGeometry x="370" y="150" width="110" height="110" as="geometry" />
        </mxCell>
        <mxCell id="sleSHWVy6FLh6MpH3Owg-16" value="" style="edgeStyle=orthogonalEdgeStyle;rounded=0;orthogonalLoop=1;jettySize=auto;html=1;" edge="1" parent="1" source="sleSHWVy6FLh6MpH3Owg-13" target="sleSHWVy6FLh6MpH3Owg-15">
          <mxGeometry relative="1" as="geometry" />
        </mxCell>
        <mxCell id="sleSHWVy6FLh6MpH3Owg-28" value="ENTÃO" style="edgeLabel;html=1;align=center;verticalAlign=middle;resizable=0;points=[];" vertex="1" connectable="0" parent="sleSHWVy6FLh6MpH3Owg-16">
          <mxGeometry x="0.1043" y="-2" relative="1" as="geometry">
            <mxPoint as="offset" />
          </mxGeometry>
        </mxCell>
        <mxCell id="sleSHWVy6FLh6MpH3Owg-13" value="sim" style="rhombus;whiteSpace=wrap;html=1;strokeWidth=2;rounded=1;arcSize=12;" vertex="1" parent="1">
          <mxGeometry x="385" y="10" width="80" height="80" as="geometry" />
        </mxCell>
        <mxCell id="sleSHWVy6FLh6MpH3Owg-31" value="" style="edgeStyle=orthogonalEdgeStyle;rounded=0;orthogonalLoop=1;jettySize=auto;html=1;" edge="1" parent="1" source="sleSHWVy6FLh6MpH3Owg-15" target="sleSHWVy6FLh6MpH3Owg-30">
          <mxGeometry relative="1" as="geometry" />
        </mxCell>
        <mxCell id="sleSHWVy6FLh6MpH3Owg-15" value="saldo - saque" style="shape=parallelogram;html=1;strokeWidth=2;perimeter=parallelogramPerimeter;whiteSpace=wrap;rounded=1;arcSize=12;size=0.23;" vertex="1" parent="1">
          <mxGeometry x="545" y="10" width="130" height="80" as="geometry" />
        </mxCell>
        <mxCell id="sleSHWVy6FLh6MpH3Owg-21" value="" style="edgeStyle=orthogonalEdgeStyle;rounded=0;orthogonalLoop=1;jettySize=auto;html=1;" edge="1" parent="1" source="sleSHWVy6FLh6MpH3Owg-18" target="sleSHWVy6FLh6MpH3Owg-20">
          <mxGeometry relative="1" as="geometry" />
        </mxCell>
        <mxCell id="sleSHWVy6FLh6MpH3Owg-29" value="ENTÃO" style="edgeLabel;html=1;align=center;verticalAlign=middle;resizable=0;points=[];" vertex="1" connectable="0" parent="sleSHWVy6FLh6MpH3Owg-21">
          <mxGeometry x="-0.1329" y="-3" relative="1" as="geometry">
            <mxPoint as="offset" />
          </mxGeometry>
        </mxCell>
        <mxCell id="sleSHWVy6FLh6MpH3Owg-18" value="não" style="rhombus;whiteSpace=wrap;html=1;strokeWidth=2;rounded=1;arcSize=12;" vertex="1" parent="1">
          <mxGeometry x="385" y="340" width="80" height="80" as="geometry" />
        </mxCell>
        <mxCell id="sleSHWVy6FLh6MpH3Owg-24" value="" style="edgeStyle=orthogonalEdgeStyle;rounded=0;orthogonalLoop=1;jettySize=auto;html=1;" edge="1" parent="1" source="sleSHWVy6FLh6MpH3Owg-20" target="sleSHWVy6FLh6MpH3Owg-22">
          <mxGeometry relative="1" as="geometry" />
        </mxCell>
        <mxCell id="sleSHWVy6FLh6MpH3Owg-20" value="Saldo insuficiente!" style="shape=parallelogram;html=1;strokeWidth=2;perimeter=parallelogramPerimeter;whiteSpace=wrap;rounded=1;arcSize=12;size=0.23;" vertex="1" parent="1">
          <mxGeometry x="525" y="340" width="150" height="70" as="geometry" />
        </mxCell>
        <mxCell id="sleSHWVy6FLh6MpH3Owg-22" value="Fim" style="ellipse;whiteSpace=wrap;html=1;strokeWidth=2;rounded=1;arcSize=12;" vertex="1" parent="1">
          <mxGeometry x="770" y="165" width="80" height="80" as="geometry" />
        </mxCell>
        <mxCell id="sleSHWVy6FLh6MpH3Owg-32" value="" style="edgeStyle=orthogonalEdgeStyle;rounded=0;orthogonalLoop=1;jettySize=auto;html=1;" edge="1" parent="1" source="sleSHWVy6FLh6MpH3Owg-30" target="sleSHWVy6FLh6MpH3Owg-22">
          <mxGeometry relative="1" as="geometry" />
        </mxCell>
        <mxCell id="sleSHWVy6FLh6MpH3Owg-30" value="Saque realizado." style="shape=parallelogram;html=1;strokeWidth=2;perimeter=parallelogramPerimeter;whiteSpace=wrap;rounded=1;arcSize=12;size=0.23;" vertex="1" parent="1">
          <mxGeometry x="745" y="10" width="130" height="80" as="geometry" />
        </mxCell>
      </root>
    </mxGraphModel>
  </diagram>
</mxfile>
